# AST/ASF file generated using VICON BodyLanguage
# -----------------------------------------------
:version 1.10
:name VICON
:units
  mass 1.0
  length 0.45
  angle deg
:documentation
   .ast/.asf automatically generated from VICON data using
   VICON BodyBuilder and BodyLanguage model FoxedUp or BRILLIANT.MOD
:root
   order TX TY TZ RX RY RZ
   axis XYZ
   position 0 0 0  
   orientation 0 0 0 
:bonedata
  begin
     id 1 
     name lhipjoint
     direction 0.78388 -0.462562 0.414208 
     length 3.01181 
     axis 0 0 0  XYZ
  end
  begin
     id 2 
     name lfemur
     direction 0.34202 -0.939693 0  
     length 6.04673  
     axis 0 0 20  XYZ
    dof rx ry rz
    limits (-160.0 20.0)
           (-70.0 70.0)
           (-60.0 70.0)
  end
  begin
     id 3 
     name ltibia
     direction 0.34202 -0.939693 0   
     length 7.211   
     axis 0 0 20   XYZ
    dof rx
    limits (-10.0 170.0)
  end
  begin
     id 4 
     name lfoot
     direction 0.121887 -0.334882 0.934344   
     length 2.13567   
     axis -90 7.62852e-016 20   XYZ
    dof rx rz
    limits (-45.0 90.0)
           (-70.0 20.0)
  end
  begin
     id 5 
     name ltoes
     direction 1.53555e-011 -4.2179e-011 1   
     length 1.05957   
     axis -90 7.62852e-016 20   XYZ
    dof rx
    limits (-90.0 20.0)
  end
  begin
     id 6 
     name rhipjoint
     direction -0.769387 -0.475875 0.426129   
     length 2.92756  
     axis 0 0 0  XYZ 
  end
  begin
     id 7 
     name rfemur
     direction -0.34202 -0.939693 0   
     length 6.35468   
     axis 0 0 -20   XYZ
    dof rx ry rz
    limits (-160.0 20.0)
           (-70.0 70.0)
           (-70.0 60.0)
  end
  begin
     id 8 
     name rtibia
     direction -0.34202 -0.939693 0   
     length 7.37886   
     axis 0 0 -20   XYZ
    dof rx
    limits (-10.0 170.0)
 end
 begin
     id 9 
     name rfoot
     direction -0.101763 -0.279592 0.954711   
     length 2.21478  
     axis -90 -7.62852e-016 -20   XYZ
    dof rx rz
    limits (-45.0 90.0)
           (-20.0 70.0)
  end
  begin
     id 10 
     name rtoes
     direction -1.53494e-011 -4.21851e-011 1   
     length 1.10506   
     axis -90 -7.62852e-016 -20   XYZ
    dof rx
    limits (-90.0 20.0)
  end
  begin
     id 11 
     name lowerback
     direction 0.00747405 0.999267 0.0375481   
     length 2.13259   
     axis 0 0 0   XYZ
    dof rx ry rz
    limits (-20.0 45.0)
           (-30.0 30.0)
           (-30.0 30.0)
  end
  begin
     id 12 
     name upperback
     direction 0.00661626 0.996177 0.0871029   
     length 2.10528   
     axis 0 0 0   XYZ
    dof rx ry rz
    limits (-20.0 45.0)
           (-30.0 30.0)
           (-30.0 30.0)
  end
  begin
     id 13 
     name thorax
     direction 0.00320659 0.997679 0.0680167   
     length 2.11338   
     axis 0 0 0   XYZ
    dof rx ry rz
    limits (-20.0 45.0)
           (-30.0 30.0)
           (-30.0 30.0)
  end
  begin
     id 14 
     name lowerneck
     direction 0.0374841 0.973033 0.227602   
     length 1.42765   
     axis 0 0 0   XYZ
    dof rx ry rz
    limits (-20.0 45.0)
           (-30.0 30.0)
           (-30.0 30.0)
  end
  begin
     id 15 
     name upperneck
     direction 0.00481585 0.989155 -0.146795   
     length 1.47593   
     axis 0 0 0   XYZ
    dof rx ry rz
    limits (-20.0 45.0)
           (-30.0 30.0)
           (-30.0 30.0)
  end
  begin
     id 16
     name head
     direction -0.00292522 0.997206 -0.0746423  
     length 1.48116  
     axis 0 0 0   XYZ
    dof rx ry rz
    limits (-20.0 45.0)
           (-30.0 30.0)
           (-30.0 30.0)
  end
  begin
     id 17 
     name lclavicle
     direction 0.951444 0.305606 0.0368784  
     length 3.01855  
     axis 0 0 0   XYZ
    dof ry rz
    limits (-20.0 10.0)
           (0.0 20.0)
  end
  begin
     id 18 
     name lhumerus
     direction 1 -4.48977e-011 2.61664e-027   
     length 5.52731   
     axis 180 -30 -90   XYZ
    dof rx ry rz
    limits (-60.0 90.0)
           (-90.0 90.0)
           (-90.0 90.0)
  end
  begin
     id 19
     name lradius
     direction 1 -4.48944e-011 8.22157e-027   
     length 3.11059   
     axis 180 -30 -90   XYZ
    dof rx
    limits (-10.0 170.0)
  end
  begin
     id 20
     name lwrist
     direction 1 -4.48976e-011 1.5779e-026   
     length 1.5553   
     axis -1.15221e-014 90 90   XYZ
    dof ry
    limits (-180.0 0.0)
 end
  begin
     id 21 
     name lhand
     direction 1 -4.49025e-011 3.1558e-026   
     length 0.419626   
     axis -2.01367e-014 90 90   XYZ
    dof rx rz
    limits (-90.0 90.0)
           (-45.0 45.0)
  end
  begin
     id 22 
     name lfingers
     direction 1 -4.4904e-011 6.31161e-026   
     length 0.338313   
     axis -4.02734e-014 90 90   XYZ
    dof rx
    limits (0.0 90.0)
  end
  begin
     id 23
     name lthumb
     direction 0.707107 -6.35004e-011 0.707107   
     length 0.485752   
     axis -90 45 2.85299e-015   XYZ
    dof rx rz
    limits (-45.0 45.0)
           (-45.0 45.0)
  end
  begin
     id 24 
     name rclavicle
     direction -0.968876 0.223791 0.105816   
     length 3.04177  
     axis 0 0 0   XYZ 
    dof ry rz
    limits (-10.0 20.0)
           (-20.0 0.0)
  end
  begin
     id 25 
     name rhumerus
     direction -1 -4.48962e-011 -1.01384e-027  
     length 5.25396   
     axis 180 30 90   XYZ
    dof rx ry rz
    limits (-90.0 60.0)
           (-90.0 90.0)
           (-90.0 90.0)
  end
  begin
     id 26 
     name rradius
     direction -1 -4.48955e-011 8.88542e-027   
     length 3.10567   
     axis 180 30 90   XYZ
    dof rx
    limits (-10.0 170.0)
  end
  begin
     id 27 
     name rwrist
     direction -1 -4.48994e-011 1.5779e-026   
     length 1.55283   
     axis -1.15221e-014 -90 -90   XYZ
    dof ry
    limits (-180.0 0.0)
  end
  begin
     id 28
     name rhand
     direction -1 -4.48891e-011 3.1558e-026   
     length 0.498676   
     axis -2.01367e-014 -90 -90   XYZ
    dof rx rz
    limits (-90.0 90.0)
           (-45.0 45.0)
  end
  begin
     id 29
     name rfingers
     direction -1 -4.48972e-011 6.31161e-026   
     length 0.402045   
     axis -4.02734e-014 -90 -90   XYZ
    dof rx
    limits (0.0 90.0)
  end
  begin
     id 30
     name rthumb
     direction -0.707107 -6.34849e-011 0.707107   
     length 0.577259   
     axis -90 -45 -2.85299e-015   XYZ
    dof rx rz
    limits (-45.0 45.0)
           (-45.0 45.0)
  end
:hierarchy
  begin
    root lhipjoint rhipjoint lowerback
    lhipjoint lfemur
    lfemur ltibia
    ltibia lfoot
    lfoot ltoes
    rhipjoint rfemur
    rfemur rtibia
    rtibia rfoot
    rfoot rtoes
    lowerback upperback
    upperback thorax
    thorax lowerneck lclavicle rclavicle
    lowerneck upperneck
    upperneck head
    lclavicle lhumerus
    lhumerus lradius
    lradius lwrist
    lwrist lhand lthumb
    lhand lfingers
    rclavicle rhumerus
    rhumerus rradius
    rradius rwrist
    rwrist rhand rthumb
    rhand rfingers
  end

#!OML:ASF H:\Pregnant\Project 1\Capture day 1\Session 1\femalepreg.ASF
:FULLY-SPECIFIED
:DEGREES
354
root 3.52867 5.29578 24.5478 106.479 -63.4571 -102.4
lowerback 40.9616 1.35529 10.6696
upperback 7.13965 4.81503 -0.254294
thorax -10.7378 1.38855 -7.72499
lowerneck -28.856 2.74513 6.24944
upperneck 1.89511 0.0659952 7.43711
head 4.99803 0.479899 1.45526
rclavicle 2.54444e-014 -3.02153e-014
rhumerus 11.2002 34.7345 -86.271
rradius 21.384
rwrist 2.46241
rhand -47.7091 -17.1834
rfingers 7.12502
rthumb -20.3889 -46.133
lclavicle 2.54444e-014 -3.02153e-014
lhumerus -8.77085 5.53597 61.9624
lradius 28.0943
lwrist 41.0755
lhand -51.4818 -0.48004
lfingers 7.12502
lthumb -24.0107 28.0382
rfemur -72.2723 -77.9496 -6.40178
rtibia 146.001
rfoot 27.9363 79.538
rtoes 19.3986
lfemur 101.46 123.922 160.004
ltibia 152.021
lfoot 44.3949 -33.2412
ltoes 22.8714
355
root 3.54113 5.28679 24.5482 106.496 -63.4246 -102.633
lowerback 41.1464 1.37999 10.6889
upperback 7.11064 4.88237 -0.168144
thorax -10.8225 1.4068 -7.67257
lowerneck -28.7083 2.78726 6.24829
upperneck 1.91061 0.15231 7.35093
head 4.98104 0.516158 1.43559
rclavicle 3.18055e-014 7.4743e-014
rhumerus 11.1839 34.9919 -86.0277
rradius 21.4878
rwrist 2.29475
rhand -47.8915 -18.6332
rfingers 7.12502
rthumb -20.5642 -47.564
lclavicle 3.18055e-014 7.4743e-014
lhumerus -8.77668 5.56795 62.095
lradius 27.9902
lwrist 40.9653
lhand -51.5001 -0.32945
lfingers 7.12502
lthumb -24.0282 28.1865
rfemur -70.9743 -78.5046 -7.70821
rtibia 146.013
rfoot 28.7565 79.8287
rtoes 19.837
lfemur 101.545 123.628 159.944
ltibia 151.982
lfoot 44.2648 -34.1593
ltoes 23.1343
356
root 3.55315 5.27872 24.5491 106.543 -63.3743 -102.907
lowerback 41.3552 1.41065 10.7052
upperback 7.0803 4.95784 -0.0790597
thorax -10.9155 1.42732 -7.61937
lowerneck -28.5726 2.84215 6.26322
upperneck 1.92357 0.249897 7.24915
head 4.96453 0.55681 1.40984
rclavicle -3.33958e-014 2.54444e-014
rhumerus 11.1749 35.2711 -85.7717
rradius 21.6002
rwrist 2.12725
rhand -48.1109 -20.2616
rfingers 7.12502
rthumb -20.7749 -49.1695
lclavicle -3.33958e-014 2.54444e-014
lhumerus -8.79272 5.61614 62.2252
lradius 27.8865
lwrist 40.8405
lhand -51.493 -0.144668
lfingers 7.12502
lthumb -24.0214 28.3722
rfemur -69.7447 -78.9407 -8.90542
rtibia 146.012
rfoot 29.1912 80.0907
rtoes 20.1409
lfemur 101.604 123.293 159.792
ltibia 151.889
lfoot 44.0942 -35.4014
ltoes 23.6085
357
root 3.56516 5.27094 24.5504 106.624 -63.3123 -103.199
lowerback 41.5579 1.44446 10.7228
upperback 7.04673 5.03776 0.00899514
thorax -11.0092 1.44969 -7.56995
lowerneck -28.4526 2.90686 6.29412
upperneck 1.93369 0.354081 7.13535
head 4.94907 0.599842 1.3787
rclavicle -1.59028e-015 -3.33958e-014
rhumerus 11.1717 35.5491 -85.5172
rradius 21.7137
rwrist 1.97823
rhand -48.2828 -21.6989
rfingers 7.12502
rthumb -20.9402 -50.5886
lclavicle -1.59028e-015 -3.33958e-014
lhumerus -8.82535 5.63353 62.3394
lradius 27.8019
lwrist 40.7565
lhand -51.4637 0.0683207
lfingers 7.12502
lthumb -23.9933 28.5888
rfemur -68.7461 -79.295 -9.85917
rtibia 146.006
rfoot 29.7214 80.2881
rtoes 20.4638
lfemur 101.624 122.945 159.608
ltibia 151.794
lfoot 43.8749 -36.6883
ltoes 24.058
358
root 3.57745 5.26294 24.5523 106.737 -63.2431 -103.494
lowerback 41.7387 1.48012 10.7399
upperback 7.00888 5.11944 0.0981424
thorax -11.1007 1.47334 -7.51979
lowerneck -28.3445 2.97812 6.3327
upperneck 1.93951 0.463642 7.01336
head 4.93383 0.644775 1.34447
rclavicle -1.59028e-014 -3.33958e-014
rhumerus 11.1701 35.8329 -85.2626
rradius 21.8314
rwrist 1.83498
rhand -48.372 -22.7402
rfingers 7.12502
rthumb -21.0258 -51.6204
lclavicle -1.59028e-014 -3.33958e-014
lhumerus -8.87403 5.62565 62.4481
lradius 27.7303
lwrist 40.7102
lhand -51.4205 0.305708
lfingers 7.12502
lthumb -23.9519 28.8317
rfemur -68.0305 -79.6041 -10.5341
rtibia 145.998
rfoot 30.499 80.4259
rtoes 20.8371
lfemur 101.625 122.606 159.47
ltibia 151.738
lfoot 43.607 -37.7665
ltoes 24.3014
359
root 3.59011 5.25445 24.5548 106.886 -63.1713 -103.787
lowerback 41.887 1.51571 10.7557
upperback 6.96634 5.19946 0.187473
thorax -11.188 1.49723 -7.46782
lowerneck -28.2469 3.05415 6.3767
upperneck 1.94108 0.577221 6.88348
head 4.91867 0.690943 1.3074
rclavicle -2.70347e-014 -3.65764e-014
rhumerus 11.1691 36.1183 -85.014
rradius 21.9482
rwrist 1.6968
rhand -48.3753 -23.3546
rfingers 7.12502
rthumb -21.029 -52.2345
lclavicle -2.70347e-014 -3.65764e-014
lhumerus -8.93945 5.60335 62.5509
lradius 27.6689
lwrist 40.6905
lhand -51.3838 0.547685
lfingers 7.12502
lthumb -23.9167 29.0783
rfemur -67.6422 -79.8893 -10.9012
rtibia 145.992
rfoot 31.5337 80.516
rtoes 21.2499
lfemur 101.607 122.285 159.397
ltibia 151.741
lfoot 43.2839 -38.5261
ltoes 24.2307
360
root 3.6035 5.24496 24.5579 107.054 -63.0977 -104.047
lowerback 41.9889 1.54406 10.777
upperback 6.91727 5.27186 0.278953
thorax -11.2693 1.51907 -7.41275
lowerneck -28.1507 3.13478 6.42314
upperneck 1.93306 0.696891 6.74665
head 4.90067 0.739006 1.26829
rclavicle -6.36111e-014 2.54444e-014
rhumerus 11.1659 36.4281 -84.763
rradius 22.0718
rwrist 1.54223
rhand -48.2821 -23.4465
rfingers 7.12502
rthumb -20.9394 -52.3363
lclavicle -6.36111e-014 2.54444e-014
lhumerus -9.03046 5.54353 62.6416
lradius 27.6252
lwrist 40.7308
lhand -51.3588 0.767307
lfingers 7.12502
lthumb -23.8927 29.301
rfemur -67.581 -80.1977 -10.9651
rtibia 145.994
rfoot 32.5882 80.5978
rtoes 21.6249
lfemur 101.564 122.003 159.43
ltibia 151.838
lfoot 42.9165 -38.7895
ltoes 23.6586
361
root 3.61726 5.23491 24.5615 107.27 -63.0014 -104.318
lowerback 42.0597 1.57782 10.7992
upperback 6.8636 5.35142 0.380834
thorax -11.3459 1.54475 -7.34933
lowerneck -28.0536 3.22361 6.48004
upperneck 1.91288 0.82613 6.59271
head 4.87864 0.789814 1.22295
rclavicle 1.43125e-014 -2.8625e-014
rhumerus 11.1696 36.7936 -84.4863
rradius 22.2105
rwrist 1.33658
rhand -48.2196 -23.5926
rfingers 7.12502
rthumb -20.8794 -52.489
lclavicle 1.43125e-014 -2.8625e-014
lhumerus -9.13639 5.49986 62.7383
lradius 27.5817
lwrist 40.7865
lhand -51.337 0.929569
lfingers 7.12502
lthumb -23.8718 29.466
rfemur -68.0469 -80.4337 -10.4808
rtibia 145.998
rfoot 33.3749 80.6421
rtoes 21.9256
lfemur 101.406 121.707 159.405
ltibia 151.957
lfoot 42.5412 -39.0492
ltoes 23.0053
362
root 3.63137 5.22401 24.5655 107.511 -62.899 -104.582
lowerback 42.1067 1.60887 10.8172
upperback 6.80629 5.42588 0.488191
thorax -11.4214 1.56877 -7.27547
lowerneck -27.9969 3.33463 6.58199
upperneck 1.92505 0.968372 6.38783
head 4.85354 0.844755 1.17282
rclavicle 1.60618e-013 3.49861e-014
rhumerus 11.1848 37.2271 -84.183
rradius 22.3633
rwrist 1.08802
rhand -48.0497 -23.2392
rfingers 7.12502
rthumb -20.7162 -52.1535
lclavicle 1.60618e-013 3.49861e-014
lhumerus -9.2597 5.4878 62.8357
lradius 27.5368
lwrist 40.8432
lhand -51.3305 1.03584
lfingers 7.12502
lthumb -23.8656 29.5731
rfemur -68.7798 -80.6792 -9.73423
rtibia 146.008
rfoot 33.6871 80.7344
rtoes 22.0485
lfemur 101.135 121.405 159.287
ltibia 152.09
lfoot 42.1676 -39.3018
ltoes 22.2927
363
root 3.64578 5.21215 24.57 107.777 -62.793 -104.84
lowerback 42.1283 1.63795 10.8322
upperback 6.74762 5.49546 0.596619
thorax -11.4921 1.59158 -7.19661
lowerneck -27.9076 3.44474 6.66489
upperneck 1.88511 1.11863 6.20874
head 4.82671 0.903003 1.11722
rclavicle -5.08889e-014 -6.83819e-014
rhumerus 11.2207 37.7161 -83.8525
rradius 22.5263
rwrist 0.809969
rhand -47.7861 -22.5028
rfingers 7.12502
rthumb -20.4629 -51.4445
lclavicle -5.08889e-014 -6.83819e-014
lhumerus -9.39191 5.5012 62.9319
lradius 27.4918
lwrist 40.9114
lhand -51.3068 1.09273
lfingers 7.12502
lthumb -23.8429 29.633
rfemur -69.7667 -80.944 -8.74333
rtibia 146.024
rfoot 33.8009 80.8518
rtoes 22.1024
lfemur 100.754 121.098 159.072
ltibia 152.235
lfoot 41.7972 -39.5406
ltoes 21.5291
364
root 3.66033 5.19926 24.5753 108.056 -62.6956 -105.086
lowerback 42.132 1.66075 10.8446
upperback 6.68771 5.55468 0.69954
thorax -11.5604 1.6106 -7.11797
lowerneck -27.83 3.56477 6.76615
upperneck 1.84039 1.27469 6.02211
head 4.80037 0.96342 1.05713
rclavicle -4.92986e-014 -3.18055e-014
rhumerus 11.2803 38.2473 -83.5022
rradius 22.6906
rwrist 0.515766
rhand -47.4271 -21.4023
rfingers 7.12502
rthumb -20.1179 -50.3807
lclavicle -4.92986e-014 -3.18055e-014
lhumerus -9.53058 5.53382 63.0237
lradius 27.4457
lwrist 40.9818
lhand -51.2773 1.13254
lfingers 7.12502
lthumb -23.8145 29.6765
rfemur -70.8678 -81.2614 -7.67114
rtibia 146.045
rfoot 34.217 80.976
rtoes 22.2054
lfemur 100.283 120.791 158.75
ltibia 152.385
lfoot 41.4177 -39.758
ltoes 20.703
